<!--
  docdistance-banner.svg - Project wordmark banner (hand-crafted v4)
  Shows: centered dual-tone "docdistance" wordmark (hero) flanked by two small
    statement clouds (node clusters); a manifold transport bundle (the optimal-
    transport plan) sweeps from the left cloud, UNDER the wordmark - through the
    clear band between the wordmark bottom and the tagline top - into the right
    cloud; a tagline under the wordmark.
  Intent: top-of-README brand banner. Communicates "document distance in meaning
    and order, via optimal transport" at a glance. Wordmark leads, motif supports.
  Wordmark: two tones. "doc" in primary navy (fg-1), "distance" in a deeper on-
    brand teal (fg-accent) drawn from the node/transport family. Subtle two-tone,
    both light and dark variants via the class system. Centred on x=600 via
    text-anchor=middle with two tspans (combined advance width auto-centres).
  Transport standoff: every strand endpoint sits ~5px clear of its cloud node.
    Nodes are r=7, endpoints are 12-13px from node centre (7 + ~5), so the bundle
    visibly detaches from both clouds instead of touching them.
  Transport routing: the trunk (merged spine) runs horizontally at y=200 in the
    clear band between the wordmark bottom (~y=186) and the tagline cap-top
    (~y=209). Left-cloud sources converge into the trunk just right of the cloud
    (merge x=205), the trunk crosses the middle band UNDER the wordmark, then
    forks just left of the right cloud (fork x=995) out to the right-cloud sinks.
    The tagline is wide (x=214..986); merge/fork sit outside it and the two lower
    strands cross the tagline band only in the cloud margins (x=196 / x=1004),
    clear of the text.
  Theme: docdistance brand - navy #023474 + teal/cyan #019ca5 (light);
    off-white #e8f4f6 + bright cyan #3bd6e0 (dark). Dual-theme via prefers-color-scheme.
  Node dots carry a subtle hue variation within the teal family: node (base teal),
    node-b (slightly bluer), node-c (slightly greener) - 2 of each shade per cloud,
    mirrored left-right, both light and dark variants.

  === GRID ===
  viewBox: 75 71 1050 214  (ratio ~4.9:1, wide banner; content-fitted with ~40px
    padding all round; rendered at width=100% in README). Internal coordinates below
    are unchanged; the viewBox just frames the content box x=115..1085, y=111..245.
  Content bounds (dots to dots): x=115..1085, y=111..245; centre (600,178)
  Centre line: x=600

  Horizontal zones:
    left-cloud zone:   x=110..250   (width 140, ~12% of viewBox)
    wordmark zone:     x=300..900   (centred on x=600)
    right-cloud zone:  x=950..1090  (width 140, ~12% of viewBox)

  Vertical bands:
    wordmark baseline:                y=185      (font 78, centred; glyph bottom ~186)
    transport trunk band:             y=200      (between wordmark and tagline)
    tagline baseline:                 y=225      (font 20; cap-top ~209)

  Left statement cloud (6 nodes, r=7, clustered around centroid 175,150):
    n-l1 (150,118)  n-l2 (122,158)  n-l3 (200,150)
    n-l4 (152,196)  n-l5 (210,196)  n-l6 (178,238)
  Right statement cloud (6 nodes, r=7, clustered around centroid 1025,150):
    n-r1 (1050,118) n-r2 (1078,158) n-r3 (1000,150)
    n-r4 (1048,196) n-r5 (990,196)  n-r6 (1022,238)

  Transport bundle (manifold, svg-infographics connector, shape=spline):
    sources = n-l1, n-l3, n-l6  (endpoints ~5px off each node edge = 12-13px from centre)
    sinks   = n-r1, n-r3, n-r6  (arrowhead tips ~5px off each node edge)
    spine   = (205,200) -> (995,200)   the trunk, flat in the middle band,
              below the wordmark (bottom ~y=186) and above the tagline (top ~y=209)
    tension = 0.95 (stiff S-curves, max strand separation, no crossings)
    standoff= 13.5 arc-length -> ~5px radial gap off every r=7 node, symmetric both ends

  === LAYOUT TOPOLOGY ===
  contain: root > background > nodes > connectors > content > callouts
  mirror: left-cloud ~ right-cloud  (across centre line x=600)
  v-align: left-cloud.centroid.y = right-cloud.centroid.y = 150
  connect: left-cloud to right-cloud via manifold (sources to sinks),
           each strand standing ~5px off its node; the trunk spine runs UNDER the
           wordmark, in the band BETWEEN the two text lines, crossing neither
  contain: header > wordmark, tagline
  v-stack: wordmark (y=185) above tagline (y=225), both centred on x=600
-->
<svg xmlns="http://www.w3.org/2000/svg" viewBox="75 71 1050 214" preserveAspectRatio="xMidYMid meet">
  <style>
    .fg-1 { fill: #023474; }
    .fg-2 { fill: #0a3b7d; }
    .fg-3 { fill: #3d6494; }
    .fg-accent { fill: #0a6b78; }
    .node { fill: #019ca5; }
    .node-b { fill: #018caf; }
    .node-c { fill: #14a596; }
    .transport { stroke: #019ca5; }
    .transport-head { fill: #06a1ac; }
    @media (prefers-color-scheme: dark) {
      .fg-1 { fill: #e8f4f6; }
      .fg-2 { fill: #bcdfe4; }
      .fg-3 { fill: #8fb5c4; }
      .fg-accent { fill: #6fd0dc; }
      .node { fill: #3bd6e0; }
      .node-b { fill: #3bc8eb; }
      .node-c { fill: #4bdccd; }
      .transport { stroke: #3bd6e0; }
      .transport-head { fill: #5fe0ea; }
    }
  </style>

  <!-- guide grid omitted for production banner; full grid documented in header comment -->

  <g id="background">
    <rect x="75" y="71" width="1050" height="214" fill="transparent"/>
  </g>

  <g id="nodes">
    <g id="cloud-left">
      <circle class="node-b" cx="150.0" cy="118.0" r="7.0"/>
      <circle class="node" cx="122.0" cy="158.0" r="7.0"/>
      <circle class="node-c" cx="200.0" cy="150.0" r="7.0"/>
      <circle class="node" cx="152.0" cy="196.0" r="7.0"/>
      <circle class="node-b" cx="210.0" cy="196.0" r="7.0"/>
      <circle class="node-c" cx="178.0" cy="238.0" r="7.0"/>
    </g>
    <g id="cloud-right">
      <circle class="node-b" cx="1050.0" cy="118.0" r="7.0"/>
      <circle class="node" cx="1078.0" cy="158.0" r="7.0"/>
      <circle class="node-c" cx="1000.0" cy="150.0" r="7.0"/>
      <circle class="node" cx="1048.0" cy="196.0" r="7.0"/>
      <circle class="node-b" cx="990.0" cy="196.0" r="7.0"/>
      <circle class="node-c" cx="1022.0" cy="238.0" r="7.0"/>
    </g>
  </g>

  <g id="connectors">
    <!-- manifold transport bundle: optimal-transport plan, left cloud to right
         cloud, trunk runs UNDER the wordmark in the clear band between the
         wordmark bottom and the tagline top (svg-infographics connector,
         mode=manifold, shape=spline, tension=0.95, standoff=13.5 arc-length so
         every strand stands ~5px clear of its r=7 cloud node). Merge x=205 and
         fork x=995 sit just outside the wide tagline (x=214..986); the two lower
         strands cross the tagline band only in the cloud margins, clear of text.
         Validator note (accepted, not defects): the connectors checker reports
         each strand endpoint as "inside card rect 1200x300" because it misreads
         the transparent full-viewBox backplate as a card; endpoints correctly
         edge-snap ~5px off the cloud node circles and to the manifold spine.
         The css checker reports "dark mode MISSING" because it does not parse
         the @media (prefers-color-scheme: dark) block, which IS present. -->
    <g class="transport" fill="none" stroke-width="1.4" opacity="0.45" stroke-linejoin="round" stroke-linecap="round">
      <!-- start 0: left-cloud (n-l1) -> merge -->
      <path d="M161.12,124.81 L161.33,125.08 L161.62,125.45 L161.90,125.83 L162.18,126.21 L162.46,126.61 L162.74,127.01 L163.01,127.42 L163.29,127.83 L163.56,128.25 L163.84,128.68 L164.11,129.12 L164.38,129.56 L164.65,130.01 L164.92,130.47 L165.19,130.93 L165.45,131.40 L165.72,131.87 L165.98,132.35 L166.25,132.84 L166.51,133.33 L166.77,133.83 L167.03,134.33 L167.29,134.84 L167.55,135.35 L167.80,135.87 L168.06,136.39 L168.32,136.92 L168.57,137.45 L168.83,137.99 L169.08,138.53 L169.33,139.08 L169.58,139.63 L169.83,140.18 L170.08,140.74 L170.33,141.30 L170.58,141.87 L170.83,142.44 L171.08,143.01 L171.33,143.58 L171.57,144.16 L171.82,144.74 L172.07,145.33 L172.31,145.92 L172.55,146.51 L172.80,147.10 L173.04,147.70 L173.29,148.29 L173.53,148.89 L173.77,149.50 L174.01,150.10 L174.26,150.71 L174.50,151.31 L174.74,151.92 L174.98,152.53 L175.22,153.15 L175.46,153.76 L175.70,154.37 L175.94,154.99 L176.18,155.60 L176.42,156.22 L176.66,156.84 L176.90,157.46 L177.14,158.07 L177.38,158.69 L177.62,159.31 L177.86,159.93 L178.10,160.54 L178.34,161.16 L178.58,161.78 L178.82,162.40 L179.06,163.01 L179.30,163.63 L179.54,164.24 L179.78,164.85 L180.02,165.47 L180.26,166.08 L180.50,166.69 L180.74,167.29 L180.99,167.90 L181.23,168.50 L181.47,169.11 L181.71,169.71 L181.96,170.30 L182.20,170.90 L182.45,171.49 L182.69,172.08 L182.93,172.67 L183.18,173.26 L183.43,173.84 L183.67,174.42 L183.92,174.99 L184.17,175.56 L184.42,176.13 L184.67,176.70 L184.92,177.26 L185.17,177.82 L185.42,178.37 L185.67,178.92 L185.92,179.47 L186.17,180.01 L186.43,180.55 L186.68,181.08 L186.94,181.61 L187.20,182.13 L187.45,182.65 L187.71,183.16 L187.97,183.67 L188.23,184.17 L188.49,184.67 L188.75,185.16 L189.02,185.65 L189.28,186.13 L189.55,186.60 L189.81,187.07 L190.08,187.53 L190.35,187.99 L190.62,188.44 L190.89,188.88 L191.16,189.32 L191.44,189.75 L191.71,190.17 L191.99,190.58 L192.26,190.99 L192.54,191.39 L192.82,191.79 L193.10,192.17 L193.38,192.55 L193.67,192.92 L193.95,193.28 L194.24,193.64 L194.53,193.98 L194.82,194.32 L195.11,194.65 L195.40,194.97 L195.70,195.28 L195.99,195.59 L196.29,195.88 L196.59,196.17 L196.89,196.44 L197.19,196.71 L197.50,196.97 L197.80,197.22 L198.11,197.45 L198.42,197.68 L198.73,197.90 L199.04,198.11 L199.36,198.31 L199.67,198.49 L199.99,198.67 L200.31,198.84 L200.63,199.00 L200.96,199.14 L201.28,199.28 L201.61,199.40 L201.94,199.51 L202.27,199.61 L202.60,199.70 L202.94,199.78 L203.28,199.85 L203.62,199.90 L203.96,199.94 L204.30,199.98 L204.65,199.99 L205.00,200.00"/>
      <!-- start 1: left-cloud (n-l3) -> merge -->
      <path d="M204.02,161.49 L204.02,161.54 L204.00,161.86 L203.98,162.19 L203.95,162.52 L203.93,162.85 L203.90,163.19 L203.88,163.52 L203.85,163.87 L203.82,164.21 L203.78,164.55 L203.75,164.90 L203.72,165.25 L203.68,165.60 L203.64,165.95 L203.61,166.31 L203.57,166.66 L203.53,167.02 L203.49,167.38 L203.44,167.74 L203.40,168.11 L203.36,168.47 L203.31,168.84 L203.27,169.21 L203.22,169.57 L203.17,169.94 L203.13,170.31 L203.08,170.69 L203.03,171.06 L202.98,171.43 L202.93,171.80 L202.88,172.18 L202.83,172.55 L202.78,172.93 L202.73,173.31 L202.68,173.68 L202.63,174.06 L202.58,174.43 L202.53,174.81 L202.47,175.19 L202.42,175.57 L202.37,175.94 L202.32,176.32 L202.27,176.69 L202.22,177.07 L202.17,177.45 L202.12,177.82 L202.07,178.20 L202.02,178.57 L201.97,178.94 L201.92,179.31 L201.87,179.69 L201.83,180.06 L201.78,180.43 L201.73,180.79 L201.69,181.16 L201.64,181.53 L201.60,181.89 L201.56,182.26 L201.51,182.62 L201.47,182.98 L201.43,183.34 L201.39,183.69 L201.36,184.05 L201.32,184.40 L201.28,184.75 L201.25,185.10 L201.22,185.45 L201.18,185.79 L201.15,186.13 L201.12,186.48 L201.10,186.81 L201.07,187.15 L201.05,187.48 L201.02,187.81 L201.00,188.14 L200.98,188.46 L200.96,188.79 L200.95,189.10 L200.93,189.42 L200.92,189.73 L200.91,190.04 L200.90,190.35 L200.90,190.65 L200.89,190.95 L200.89,191.25 L200.89,191.54 L200.89,191.83 L200.90,192.12 L200.90,192.40 L200.91,192.68 L200.92,192.95 L200.94,193.22 L200.95,193.49 L200.97,193.75 L200.99,194.01 L201.02,194.26 L201.04,194.51 L201.07,194.75 L201.11,194.99 L201.14,195.23 L201.18,195.46 L201.22,195.68 L201.26,195.90 L201.31,196.12 L201.36,196.33 L201.41,196.54 L201.47,196.74 L201.53,196.93 L201.59,197.12 L201.65,197.31 L201.72,197.49 L201.79,197.66 L201.87,197.83 L201.95,197.99 L202.03,198.15 L202.12,198.30 L202.21,198.45 L202.30,198.59 L202.40,198.72 L202.50,198.85 L202.60,198.97 L202.71,199.08 L202.82,199.19 L202.94,199.29 L203.06,199.39 L203.18,199.48 L203.31,199.56 L203.44,199.63 L203.58,199.70 L203.72,199.76 L203.86,199.82 L204.01,199.87 L204.17,199.91 L204.32,199.94 L204.49,199.97 L204.65,199.98 L204.82,200.00 L205.00,200.00"/>
      <!-- start 2: left-cloud (n-l6) -> merge -->
      <path d="M187.09,228.84 L187.14,228.74 L187.27,228.49 L187.39,228.23 L187.52,227.98 L187.64,227.72 L187.77,227.46 L187.89,227.20 L188.02,226.94 L188.14,226.68 L188.27,226.41 L188.39,226.14 L188.51,225.88 L188.64,225.61 L188.76,225.33 L188.88,225.06 L189.01,224.79 L189.13,224.51 L189.25,224.24 L189.38,223.96 L189.50,223.68 L189.62,223.40 L189.74,223.12 L189.86,222.84 L189.99,222.56 L190.11,222.28 L190.23,222.00 L190.35,221.71 L190.47,221.43 L190.59,221.14 L190.71,220.86 L190.83,220.57 L190.96,220.29 L191.08,220.00 L191.20,219.72 L191.32,219.43 L191.44,219.14 L191.56,218.86 L191.68,218.57 L191.80,218.28 L191.92,218.00 L192.04,217.71 L192.17,217.43 L192.29,217.14 L192.41,216.86 L192.53,216.57 L192.65,216.29 L192.77,216.00 L192.89,215.72 L193.01,215.44 L193.14,215.16 L193.26,214.88 L193.38,214.60 L193.50,214.32 L193.62,214.04 L193.75,213.76 L193.87,213.49 L193.99,213.21 L194.12,212.94 L194.24,212.67 L194.36,212.39 L194.49,212.12 L194.61,211.86 L194.73,211.59 L194.86,211.32 L194.98,211.06 L195.11,210.80 L195.23,210.54 L195.36,210.28 L195.48,210.02 L195.61,209.77 L195.73,209.51 L195.86,209.26 L195.99,209.01 L196.11,208.77 L196.24,208.52 L196.37,208.28 L196.50,208.04 L196.63,207.80 L196.75,207.57 L196.88,207.33 L197.01,207.10 L197.14,206.88 L197.27,206.65 L197.40,206.43 L197.54,206.21 L197.67,205.99 L197.80,205.78 L197.93,205.57 L198.06,205.36 L198.20,205.15 L198.33,204.95 L198.47,204.75 L198.60,204.56 L198.74,204.36 L198.87,204.17 L199.01,203.99 L199.15,203.81 L199.28,203.63 L199.42,203.45 L199.56,203.28 L199.70,203.11 L199.84,202.95 L199.98,202.79 L200.12,202.63 L200.26,202.48 L200.41,202.33 L200.55,202.19 L200.69,202.05 L200.84,201.91 L200.98,201.78 L201.13,201.65 L201.27,201.52 L201.42,201.41 L201.57,201.29 L201.71,201.18 L201.86,201.07 L202.01,200.97 L202.16,200.88 L202.31,200.78 L202.47,200.70 L202.62,200.62 L202.77,200.54 L202.92,200.47 L203.08,200.40 L203.24,200.34 L203.39,200.28 L203.55,200.23 L203.71,200.18 L203.87,200.14 L204.02,200.10 L204.19,200.07 L204.35,200.05 L204.51,200.03 L204.67,200.01 L204.84,200.00 L205.00,200.00"/>
      <!-- spine (trunk): merge -> fork, under the wordmark -->
      <path d="M205.00,200.00 L208.97,200.00 L212.94,200.00 L216.91,200.00 L220.88,200.00 L224.85,200.00 L228.82,200.00 L232.79,200.00 L236.76,200.00 L240.73,200.00 L244.70,200.00 L248.67,200.00 L252.64,200.00 L256.61,200.00 L260.58,200.00 L264.55,200.00 L268.52,200.00 L272.49,200.00 L276.46,200.00 L280.43,200.00 L284.40,200.00 L288.37,200.00 L292.34,200.00 L296.31,200.00 L300.28,200.00 L304.25,200.00 L308.22,200.00 L312.19,200.00 L316.16,200.00 L320.13,200.00 L324.10,200.00 L328.07,200.00 L332.04,200.00 L336.01,200.00 L339.97,200.00 L343.94,200.00 L347.91,200.00 L351.88,200.00 L355.85,200.00 L359.82,200.00 L363.79,200.00 L367.76,200.00 L371.73,200.00 L375.70,200.00 L379.67,200.00 L383.64,200.00 L387.61,200.00 L391.58,200.00 L395.55,200.00 L399.52,200.00 L403.49,200.00 L407.46,200.00 L411.43,200.00 L415.40,200.00 L419.37,200.00 L423.34,200.00 L427.31,200.00 L431.28,200.00 L435.25,200.00 L439.22,200.00 L443.19,200.00 L447.16,200.00 L451.13,200.00 L455.10,200.00 L459.07,200.00 L463.04,200.00 L467.01,200.00 L470.98,200.00 L474.95,200.00 L478.92,200.00 L482.89,200.00 L486.86,200.00 L490.83,200.00 L494.80,200.00 L498.77,200.00 L502.74,200.00 L506.71,200.00 L510.68,200.00 L514.65,200.00 L518.62,200.00 L522.59,200.00 L526.56,200.00 L530.53,200.00 L534.50,200.00 L538.47,200.00 L542.44,200.00 L546.41,200.00 L550.38,200.00 L554.35,200.00 L558.32,200.00 L562.29,200.00 L566.26,200.00 L570.23,200.00 L574.20,200.00 L578.17,200.00 L582.14,200.00 L586.11,200.00 L590.08,200.00 L594.05,200.00 L598.02,200.00 L601.98,200.00 L605.95,200.00 L609.92,200.00 L613.89,200.00 L617.86,200.00 L621.83,200.00 L625.80,200.00 L629.77,200.00 L633.74,200.00 L637.71,200.00 L641.68,200.00 L645.65,200.00 L649.62,200.00 L653.59,200.00 L657.56,200.00 L661.53,200.00 L665.50,200.00 L669.47,200.00 L673.44,200.00 L677.41,200.00 L681.38,200.00 L685.35,200.00 L689.32,200.00 L693.29,200.00 L697.26,200.00 L701.23,200.00 L705.20,200.00 L709.17,200.00 L713.14,200.00 L717.11,200.00 L721.08,200.00 L725.05,200.00 L729.02,200.00 L732.99,200.00 L736.96,200.00 L740.93,200.00 L744.90,200.00 L748.87,200.00 L752.84,200.00 L756.81,200.00 L760.78,200.00 L764.75,200.00 L768.72,200.00 L772.69,200.00 L776.66,200.00 L780.63,200.00 L784.60,200.00 L788.57,200.00 L792.54,200.00 L796.51,200.00 L800.48,200.00 L804.45,200.00 L808.42,200.00 L812.39,200.00 L816.36,200.00 L820.33,200.00 L824.30,200.00 L828.27,200.00 L832.24,200.00 L836.21,200.00 L840.18,200.00 L844.15,200.00 L848.12,200.00 L852.09,200.00 L856.06,200.00 L860.03,200.00 L863.99,200.00 L867.96,200.00 L871.93,200.00 L875.90,200.00 L879.87,200.00 L883.84,200.00 L887.81,200.00 L891.78,200.00 L895.75,200.00 L899.72,200.00 L903.69,200.00 L907.66,200.00 L911.63,200.00 L915.60,200.00 L919.57,200.00 L923.54,200.00 L927.51,200.00 L931.48,200.00 L935.45,200.00 L939.42,200.00 L943.39,200.00 L947.36,200.00 L951.33,200.00 L955.30,200.00 L959.27,200.00 L963.24,200.00 L967.21,200.00 L971.18,200.00 L975.15,200.00 L979.12,200.00 L983.09,200.00 L987.06,200.00 L991.03,200.00 L995.00,200.00"/>
      <!-- end 0: fork -> right-cloud (n-r1) -->
      <path d="M995.00,200.00 L995.35,199.99 L995.70,199.98 L996.04,199.94 L996.38,199.90 L996.72,199.85 L997.06,199.78 L997.40,199.70 L997.73,199.61 L998.06,199.51 L998.39,199.40 L998.72,199.28 L999.04,199.14 L999.37,199.00 L999.69,198.84 L1000.01,198.67 L1000.33,198.49 L1000.64,198.31 L1000.96,198.11 L1001.27,197.90 L1001.58,197.68 L1001.89,197.45 L1002.20,197.22 L1002.50,196.97 L1002.81,196.71 L1003.11,196.44 L1003.41,196.17 L1003.71,195.88 L1004.01,195.59 L1004.30,195.28 L1004.60,194.97 L1004.89,194.65 L1005.18,194.32 L1005.47,193.98 L1005.76,193.64 L1006.05,193.28 L1006.33,192.92 L1006.62,192.55 L1006.90,192.17 L1007.18,191.79 L1007.46,191.39 L1007.74,190.99 L1008.01,190.58 L1008.29,190.17 L1008.56,189.75 L1008.84,189.32 L1009.11,188.88 L1009.38,188.44 L1009.65,187.99 L1009.92,187.53 L1010.19,187.07 L1010.45,186.60 L1010.72,186.13 L1010.98,185.65 L1011.25,185.16 L1011.51,184.67 L1011.77,184.17 L1012.03,183.67 L1012.29,183.16 L1012.55,182.65 L1012.80,182.13 L1013.06,181.61 L1013.32,181.08 L1013.57,180.55 L1013.83,180.01 L1014.08,179.47 L1014.33,178.92 L1014.58,178.37 L1014.83,177.82 L1015.08,177.26 L1015.33,176.70 L1015.58,176.13 L1015.83,175.56 L1016.08,174.99 L1016.33,174.42 L1016.57,173.84 L1016.82,173.26 L1017.07,172.67 L1017.31,172.08 L1017.55,171.49 L1017.80,170.90 L1018.04,170.30 L1018.29,169.71 L1018.53,169.11 L1018.77,168.50 L1019.01,167.90 L1019.26,167.29 L1019.50,166.69 L1019.74,166.08 L1019.98,165.47 L1020.22,164.85 L1020.46,164.24 L1020.70,163.63 L1020.94,163.01 L1021.18,162.40 L1021.42,161.78 L1021.66,161.16 L1021.90,160.54 L1022.14,159.93 L1022.38,159.31 L1022.62,158.69 L1022.86,158.07 L1023.10,157.46 L1023.34,156.84 L1023.58,156.22 L1023.82,155.60 L1024.06,154.99 L1024.30,154.37 L1024.54,153.76 L1024.78,153.15 L1025.02,152.53 L1025.26,151.92 L1025.50,151.31 L1025.74,150.71 L1025.99,150.10 L1026.23,149.50 L1026.47,148.89 L1026.71,148.29 L1026.96,147.70 L1027.20,147.10 L1027.45,146.51 L1027.69,145.92 L1027.93,145.33 L1028.18,144.74 L1028.43,144.16 L1028.67,143.58 L1028.92,143.01 L1029.17,142.44 L1029.42,141.87 L1029.67,141.30 L1029.92,140.74 L1030.17,140.18 L1030.42,139.63 L1030.67,139.08 L1030.92,138.53 L1031.17,137.99 L1031.43,137.45 L1031.68,136.92 L1031.94,136.39 L1032.20,135.87 L1032.45,135.35 L1032.71,134.84 L1032.97,134.33 L1033.23,133.83 L1033.49,133.33 L1033.54,133.24"/>
      <polygon class="transport-head" points="1038.88,124.81 1028.77,129.57 1036.63,135.76" stroke="none"/>
      <!-- end 1: fork -> right-cloud (n-r3) -->
      <path d="M995.00,200.00 L995.18,200.00 L995.35,199.98 L995.51,199.97 L995.68,199.94 L995.83,199.91 L995.99,199.87 L996.14,199.82 L996.28,199.76 L996.42,199.70 L996.56,199.63 L996.69,199.56 L996.82,199.48 L996.94,199.39 L997.06,199.29 L997.18,199.19 L997.29,199.08 L997.40,198.97 L997.50,198.85 L997.60,198.72 L997.70,198.59 L997.79,198.45 L997.88,198.30 L997.97,198.15 L998.05,197.99 L998.13,197.83 L998.21,197.66 L998.28,197.49 L998.35,197.31 L998.41,197.12 L998.47,196.93 L998.53,196.74 L998.59,196.54 L998.64,196.33 L998.69,196.12 L998.74,195.90 L998.78,195.68 L998.82,195.46 L998.86,195.23 L998.89,194.99 L998.93,194.75 L998.96,194.51 L998.98,194.26 L999.01,194.01 L999.03,193.75 L999.05,193.49 L999.06,193.22 L999.08,192.95 L999.09,192.68 L999.10,192.40 L999.10,192.12 L999.11,191.83 L999.11,191.54 L999.11,191.25 L999.11,190.95 L999.10,190.65 L999.10,190.35 L999.09,190.04 L999.08,189.73 L999.07,189.42 L999.05,189.10 L999.04,188.79 L999.02,188.46 L999.00,188.14 L998.98,187.81 L998.95,187.48 L998.93,187.15 L998.90,186.81 L998.88,186.48 L998.85,186.13 L998.82,185.79 L998.78,185.45 L998.75,185.10 L998.72,184.75 L998.68,184.40 L998.64,184.05 L998.61,183.69 L998.57,183.34 L998.53,182.98 L998.49,182.62 L998.44,182.26 L998.40,181.89 L998.36,181.53 L998.31,181.16 L998.27,180.79 L998.22,180.43 L998.17,180.06 L998.13,179.69 L998.08,179.31 L998.03,178.94 L997.98,178.57 L997.93,178.20 L997.88,177.82 L997.83,177.45 L997.78,177.07 L997.73,176.69 L997.68,176.32 L997.63,175.94 L997.58,175.57 L997.53,175.19 L997.47,174.81 L997.42,174.43 L997.37,174.06 L997.32,173.68 L997.27,173.31 L997.22,172.93 L997.17,172.55 L997.12,172.18 L997.07,171.80 L997.02,171.44"/>
      <polygon class="transport-head" points="995.98,161.49 991.54,171.76 1001.53,171.20" stroke="none"/>
      <!-- end 2: fork -> right-cloud (n-r6) -->
      <path d="M995.00,200.00 L995.16,200.00 L995.33,200.01 L995.49,200.03 L995.65,200.05 L995.81,200.07 L995.98,200.10 L996.13,200.14 L996.29,200.18 L996.45,200.23 L996.61,200.28 L996.76,200.34 L996.92,200.40 L997.08,200.47 L997.23,200.54 L997.38,200.62 L997.53,200.70 L997.69,200.78 L997.84,200.88 L997.99,200.97 L998.14,201.07 L998.29,201.18 L998.43,201.29 L998.58,201.41 L998.73,201.52 L998.87,201.65 L999.02,201.78 L999.16,201.91 L999.31,202.05 L999.45,202.19 L999.59,202.33 L999.74,202.48 L999.88,202.63 L1000.02,202.79 L1000.16,202.95 L1000.30,203.11 L1000.44,203.28 L1000.58,203.45 L1000.72,203.63 L1000.85,203.81 L1000.99,203.99 L1001.13,204.17 L1001.26,204.36 L1001.40,204.56 L1001.53,204.75 L1001.67,204.95 L1001.80,205.15 L1001.94,205.36 L1002.07,205.57 L1002.20,205.78 L1002.33,205.99 L1002.46,206.21 L1002.60,206.43 L1002.73,206.65 L1002.86,206.88 L1002.99,207.10 L1003.12,207.33 L1003.25,207.57 L1003.37,207.80 L1003.50,208.04 L1003.63,208.28 L1003.76,208.52 L1003.89,208.77 L1004.01,209.01 L1004.14,209.26 L1004.27,209.51 L1004.39,209.77 L1004.52,210.02 L1004.64,210.28 L1004.77,210.54 L1004.89,210.80 L1005.02,211.06 L1005.14,211.32 L1005.27,211.59 L1005.39,211.86 L1005.51,212.12 L1005.64,212.39 L1005.76,212.67 L1005.88,212.94 L1006.01,213.21 L1006.13,213.49 L1006.25,213.76 L1006.38,214.04 L1006.50,214.32 L1006.62,214.60 L1006.74,214.88 L1006.86,215.16 L1006.99,215.44 L1007.11,215.72 L1007.23,216.00 L1007.35,216.29 L1007.47,216.57 L1007.59,216.86 L1007.71,217.14 L1007.83,217.43 L1007.96,217.71 L1008.08,218.00 L1008.20,218.28 L1008.32,218.57 L1008.44,218.86 L1008.56,219.14 L1008.68,219.43 L1008.80,219.72 L1008.81,219.72"/>
      <polygon class="transport-head" points="1012.91,228.84 1012.83,217.66 1003.92,222.20" stroke="none"/>
    </g>
  </g>

  <g id="content">
    <g id="header">
      <text x="600" y="185" text-anchor="middle" font-family="Segoe UI, system-ui, -apple-system, Arial, sans-serif" font-size="78" font-weight="700" letter-spacing="1.5"><tspan class="fg-1">doc</tspan><tspan class="fg-accent">distance</tspan></text>
      <text x="600" y="225" text-anchor="middle" font-family="Segoe UI, system-ui, -apple-system, Arial, sans-serif" font-size="20" font-weight="500" letter-spacing="0.8" class="fg-3">document distance in meaning and order, via optimal transport</text>
    </g>
  </g>

  <g id="callouts">
    <!-- no callouts on banner -->
  </g>
</svg>
